PathFileType	4	(X/Y/Z)	s05c0203.trc
DataRate	CameraRate	NumFrames	NumMarkers	Units	OrigDataRate	OrigDataStartFrame	OrigNumFrames
200	200	4	47	mm	200	1750	2000
Frame#	Time	racr			lacr			c7			jug			rlel			rdr			llel			ldr			s2			lic			ric			lasi			rasi			rpsi			lpsi			rgt			lgt			rth1			rth2			rth3			rth4			rlfc			rsh1			rsh2			rsh3			rsh4			rlmal			rcal			rtoe			rmt5			lth1			lth2			lth4			lth3			llfc			lmfc			lsh1			lsh2			lsh3			lsh4			llmal			lcal			ltoe			lmt5			SBIKE			LBIKE			RBIKE			
		X1	Y1	Z1	X2	Y2	Z2	X3	Y3	Z3	X4	Y4	Z4	X5	Y5	Z5	X6	Y6	Z6	X7	Y7	Z7	X8	Y8	Z8	X9	Y9	Z9	X10	Y10	Z10	X11	Y11	Z11	X12	Y12	Z12	X13	Y13	Z13	X14	Y14	Z14	X15	Y15	Z15	X16	Y16	Z16	X17	Y17	Z17	X18	Y18	Z18	X19	Y19	Z19	X20	Y20	Z20	X21	Y21	Z21	X22	Y22	Z22	X23	Y23	Z23	X24	Y24	Z24	X25	Y25	Z25	X26	Y26	Z26	X27	Y27	Z27	X28	Y28	Z28	X29	Y29	Z29	X30	Y30	Z30	X31	Y31	Z31	X32	Y32	Z32	X33	Y33	Z33	X34	Y34	Z34	X35	Y35	Z35	X36	Y36	Z36	X37	Y37	Z37	X38	Y38	Z38	X39	Y39	Z39	X40	Y40	Z40	X41	Y41	Z41	X42	Y42	Z42	X43	Y43	Z43	X44	Y44	Z44	X45	Y45	Z45	X46	Y46	Z46	X47	Y47	Z47	
1750	8.7500	482.429777	1230.998798	-142.612833	490.262163	1221.246154	-396.927892	473.360929	1310.559708	-275.856780	393.607392	1170.025939	-269.864302	493.035174	1057.692260	71.533602	664.303052	960.130734	-64.347387	491.587554	1071.976859	-652.595798	661.595718	956.649922	-505.510071	-118.953302	1186.647862	-295.442140	34.191027	1176.527523	-437.179098	17.215889	1214.387112	-154.499278	71.840745	1120.543303	-391.631162	63.571316	1157.053851	-177.478942	-84.342821	1239.120120	-261.545045	-76.425746	1231.358162	-346.606005	-8.166944	1110.201627	-114.102324	-44.904382	1075.468639	-451.535896	101.551213	1074.327175	-113.060687	190.986354	1071.318506	-120.166860	264.304834	1024.076156	-123.833985	199.025558	1103.345939	-137.864319	398.633415	963.778981	-158.045274	326.033619	889.267565	-130.808974	298.587679	804.733091	-134.215156	237.199903	745.723400	-131.088806	325.426239	788.865101	-156.752016	165.776454	623.602540	-126.691162	88.571451	613.725038	-169.453244	352.342577	480.805535	-160.601605	250.719235	501.787807	-95.859243	26.802892	951.569258	-469.202696	88.177455	891.582554	-467.658539	119.870134	908.235462	-456.983100	110.847795	803.889863	-466.526400	173.608673	672.921011	-435.513761	162.761241	660.762724	-327.435057	116.787982	557.811998	-460.063252	118.590996	471.488490	-449.302766	75.136868	393.530249	-444.968758	150.099848	465.916740	-427.947042	58.203838	275.261394	-437.016793	-5.088371	252.117491	-391.487744	270.651624	150.138115	-402.758754	158.541554	153.930150	-463.774528	-264.899489	891.620232	-285.697478	-53.514636	79.176829	-474.752700	-53.475936	79.290213	-77.128852	
1751	8.7550	481.063302	1230.050588	-142.187482	490.445686	1219.810278	-395.032595	472.812972	1310.208178	-274.555692	392.851487	1169.752982	-269.854933	491.811144	1056.469766	72.009964	664.113617	960.067506	-63.728007	491.502848	1071.964162	-651.669939	661.085064	956.670045	-504.666133	-119.888415	1187.898406	-295.870385	33.516425	1177.148990	-437.500564	16.199654	1215.513522	-154.715152	70.908418	1121.178395	-392.037042	62.504305	1157.730463	-177.430537	-85.074878	1240.371601	-261.805461	-77.187468	1232.290482	-346.862031	-9.314547	1111.238909	-114.430323	-45.526170	1076.223015	-451.889759	100.247728	1074.151104	-113.034268	189.586545	1070.196105	-119.892219	262.698219	1022.473369	-123.129703	198.088148	1102.134033	-137.682457	396.462855	960.944299	-158.037410	323.824903	885.123704	-130.668141	297.902954	800.253276	-133.829076	237.302479	740.121517	-131.090050	325.050364	784.761017	-156.210045	168.455137	616.621734	-126.885019	91.667031	603.243161	-170.188361	361.523522	483.357367	-159.629219	258.706155	498.827242	-95.418298	28.084708	952.648046	-469.565738	90.320790	893.688962	-467.092864	121.715023	910.879396	-456.272402	114.280372	806.316281	-465.346599	178.224629	676.048472	-435.340987	166.845268	663.858823	-327.508140	118.820312	562.019968	-459.849894	118.429475	475.667798	-448.969171	73.002459	398.849661	-444.710820	149.678018	469.430499	-427.512087	52.797962	281.412891	-436.852645	-11.127827	260.126739	-391.140413	261.263279	149.691631	-402.633944	149.393769	157.114767	-463.521570	-265.165508	891.696536	-285.621175	-53.533190	79.203765	-474.756115	-53.467900	79.295208	-77.144070	
1752	8.7600	479.818373	1229.854438	-141.028603	490.614944	1218.492605	-393.224669	472.194768	1310.052408	-273.298264	392.278569	1169.565627	-269.088045	490.570065	1055.383774	72.337693	663.952576	960.097816	-63.025414	491.281524	1071.957595	-650.842558	660.460559	956.705186	-503.816831	-120.746761	1188.811012	-296.050869	32.589679	1177.724516	-437.563910	15.276310	1216.459958	-154.904321	69.876774	1121.510575	-392.165709	61.393243	1158.396465	-177.451789	-85.768529	1241.206929	-262.036867	-77.852459	1233.234806	-347.114687	-10.529098	1112.210505	-114.759265	-46.075886	1076.929058	-452.313456	98.830523	1073.410525	-112.941831	187.914225	1069.073425	-118.966172	260.826519	1019.752797	-122.691181	197.284155	1100.194274	-137.224589	393.350537	956.288662	-157.040773	320.931087	880.299885	-130.001107	296.752176	794.411816	-133.499350	237.217787	733.198732	-130.963783	324.135873	778.978674	-156.003267	170.987314	608.371260	-127.306566	94.846039	591.620336	-170.864602	370.345672	485.374137	-158.676763	266.501675	495.245617	-94.916793	29.693881	953.960040	-469.894344	92.892137	896.097016	-466.511305	123.891946	913.726552	-455.488264	118.372900	809.138101	-464.235917	183.572758	679.517054	-435.224034	171.608432	667.725590	-327.109942	121.656463	566.697770	-459.758835	119.012255	480.437023	-448.921484	71.499030	404.778889	-444.688346	149.668966	473.152208	-426.503200	47.972893	288.270957	-436.817111	-16.673381	269.218393	-391.114450	251.939856	149.599607	-402.433724	140.404584	160.871631	-463.317913	-265.175351	891.686798	-285.503108	-53.523449	79.241456	-474.730830	-53.469576	79.300425	-77.112175	
1753	8.7650	478.638745	1230.480368	-139.220652	490.934548	1217.402874	-391.604924	471.875842	1310.282884	-272.532707	391.746846	1169.936786	-268.005692	489.262518	1054.502346	72.401470	663.860495	960.094294	-62.253959	490.948285	1072.010119	-650.074769	659.851432	956.694077	-503.077127	-121.567339	1189.571503	-296.061492	31.864895	1178.165474	-437.691458	14.371393	1217.244181	-155.061827	68.921993	1121.850477	-392.372225	60.413385	1158.804168	-177.301834	-86.445272	1241.818830	-262.050005	-78.545645	1233.934011	-347.226527	-11.708012	1112.602754	-115.229314	-46.447590	1077.645363	-452.736454	97.706333	1072.399310	-112.517837	186.679235	1066.279414	-118.750156	258.743402	1015.879862	-122.264221	196.487250	1097.694008	-136.682870	390.534772	950.995631	-156.396680	317.876276	872.979351	-129.631811	295.443867	787.284499	-133.000909	236.943560	724.951118	-130.912980	323.304503	772.250702	-155.294058	173.586169	599.206962	-127.743696	98.424830	578.850324	-171.432672	378.656188	486.511378	-158.268837	274.285151	491.026360	-94.671775	31.548030	955.361737	-470.113785	96.044601	898.941022	-466.691535	126.442819	917.000827	-454.593870	122.987354	812.333331	-463.281445	189.644240	683.415544	-435.103931	177.168868	671.574747	-327.096931	125.084777	571.776705	-459.692004	120.095231	485.593412	-448.862214	70.639060	411.282729	-444.796956	150.464777	477.563378	-426.298788	43.702029	295.644037	-436.867196	-21.604932	278.742122	-391.095389	242.787122	150.037810	-402.353129	131.781119	165.291399	-463.206024	-265.234880	891.703235	-285.380831	-53.536679	79.283658	-474.699101	-53.466811	79.290369	-77.114073	
